<svg width="81" height="81" viewBox="0 0 81 81" fill="none" xmlns="http://www.w3.org/2000/svg">
<path d="M44.6667 40.5013C46.9679 40.5013 48.8333 38.6358 48.8333 36.3346C48.8333 34.0334 46.9679 32.168 44.6667 32.168C42.3655 32.168 40.5 34.0334 40.5 36.3346C40.5 38.6358 42.3655 40.5013 44.6667 40.5013Z" fill="#E50BB5"/>
<path d="M54.4667 7.16797H26.5334C14.4 7.16797 7.16669 14.4013 7.16669 26.5346V54.4346C7.16669 66.6013 14.4 73.8346 26.5334 73.8346H54.4334C66.5667 73.8346 73.8 66.6013 73.8 54.468V26.5346C73.8334 14.4013 66.6 7.16797 54.4667 7.16797ZM53.4667 45.4013C50.0334 48.8013 45.1334 49.868 40.8 48.5013L37.2667 52.0013C36.9667 52.3013 36.4334 52.3013 36.1 52.0013L32.8667 48.768C32.4 48.3013 31.6 48.3013 31.1 48.768C30.6 49.2346 30.6334 50.0346 31.1 50.5346L34.3334 53.768C34.6667 54.1013 34.6667 54.6346 34.3334 54.9346L32.9667 56.3013C32.4 56.9013 31.3 57.268 30.5 57.168L26.8667 56.668C25.6667 56.5013 24.5667 55.368 24.3667 54.168L23.8667 50.5346C23.7334 49.7346 24.1334 48.6346 24.6667 48.068L32.5 40.2346C31.1667 35.9013 32.2 31.0013 35.6334 27.568C40.5334 22.668 48.5334 22.668 53.4667 27.568C58.4 32.468 58.4 40.468 53.4667 45.4013Z" fill="#E50BB5"/>
</svg>
