<svg width="81" height="80" viewBox="0 0 81 80" fill="none" xmlns="http://www.w3.org/2000/svg">
<path d="M59.8667 18.3013V20.768L48.0667 13.9346C43.6 11.368 37.3667 11.368 32.9334 13.9346L21.1334 20.8013V18.3013C21.1334 10.8013 25.2334 6.66797 32.7334 6.66797H48.2667C55.7667 6.66797 59.8667 10.8013 59.8667 18.3013Z" fill="#0B63E5"/>
<path d="M59.9667 26.5674L59.5 26.3341L54.9667 23.7341L45.5667 18.3008C42.7 16.6341 38.3 16.6341 35.4334 18.3008L26.0334 23.7008L21.5 26.3674L20.9 26.6674C15.0667 30.6008 14.6667 31.3341 14.6667 37.6341V52.7008C14.6667 59.0008 15.0667 59.7341 21.0334 63.7674L35.4334 72.0675C36.8667 72.9341 38.6667 73.3008 40.5 73.3008C42.3 73.3008 44.1334 72.9008 45.5667 72.0675L60.1 63.6675C65.9667 59.7341 66.3334 59.0341 66.3334 52.7008V37.6341C66.3334 31.3341 65.9334 30.6008 59.9667 26.5674ZM49.8 45.0008L47.7667 47.5008C47.4334 47.8675 47.2 48.5675 47.2334 49.0675L47.4334 52.2675C47.5667 54.2341 46.1667 55.2341 44.3334 54.5341L41.3667 53.3341C40.9 53.1675 40.1334 53.1675 39.6667 53.3341L36.7 54.5008C34.8667 55.2341 33.4667 54.2008 33.6 52.2341L33.8 49.0341C33.8334 48.5341 33.6 47.8341 33.2667 47.4674L31.2 45.0008C29.9334 43.5008 30.5 41.8341 32.4 41.3341L35.5 40.5341C36 40.4008 36.5667 39.9341 36.8334 39.5341L38.5667 36.8675C39.6334 35.2008 41.3334 35.2008 42.4334 36.8675L44.1667 39.5341C44.4334 39.9674 45.0334 40.4008 45.5 40.5341L48.6 41.3341C50.5 41.8341 51.0667 43.5008 49.8 45.0008Z" fill="#0B63E5"/>
</svg>
