<svg width="1744" height="1811" viewBox="0 0 1744 1811" fill="none" xmlns="http://www.w3.org/2000/svg">
<path opacity="0.4" d="M283.552 1209.12L494.416 1184.32C510.321 1182.42 522.728 1170.63 523.4 1156.72C528.512 1042.74 553.753 584.804 558.826 492.419C559.356 482.318 553.639 473.095 543.747 468.168L460.232 426.718C441.34 417.299 416.655 427.74 412.324 446.877C381.519 584.464 279.289 1041.28 249.545 1177.72C245.577 1195.9 262.509 1211.55 283.552 1209.12Z" fill="#405EB0"/>
<path opacity="0.4" d="M1358.74 1053.27L1717.08 1001.88C1738.42 998.815 1740.95 968.462 1720.64 959.286L1424.79 825.072C1413.34 819.897 1400.58 825.352 1396.65 837.075L1334.16 1022.68C1328.83 1038.64 1342.4 1055.6 1358.74 1053.27Z" fill="#405EB0"/>
<path opacity="0.4" d="M1253.15 747.969L1132.28 693.157C1113.32 684.527 1087.85 694.751 1081.49 713.53C1053.81 795.483 988.29 989.529 960.087 1073.36C953.584 1092.68 971.226 1109.43 994.48 1106.04L1228.85 1072.46C1246.32 1069.98 1260.01 1056.81 1260.48 1042.17L1268.47 770.869C1268.77 761.084 1262.99 752.457 1253.19 748.04L1253.15 747.969Z" fill="#405EB0"/>
<path opacity="0.4" d="M637.845 1157.42L868.801 1124.36C886.27 1121.87 899.96 1108.71 900.429 1094.07C903.096 1000.79 912.633 685.083 914.848 611.013C915.148 601.228 909.411 592.671 899.611 588.253L818.442 551.377C799.122 542.572 773.089 553.487 767.374 572.649C733.739 685.671 636.74 1011.72 603.102 1125.68C597.481 1144.69 615.031 1160.65 637.845 1157.42Z" fill="#405EB0"/>
<path opacity="0.4" d="M143.498 1226.58C173.68 1221.84 196.091 1196.61 198.101 1164.87C204.762 1059.65 221.48 828.09 234.384 651.789C236.835 618.487 180.726 614.942 168.679 647.634L-43.8486 1221.91C-49.6111 1237.55 -36.1705 1254.59 -20.0159 1252.1L143.565 1226.54L143.498 1226.58Z" fill="#405EB0"/>
</svg>
