<svg width="470" height="189" viewBox="0 0 470 189" fill="none" xmlns="http://www.w3.org/2000/svg">
<path d="M414.135 13.6328C407.245 11.8173 406.103 12.2175 395.117 12.228C335.918 12.2848 275.52 14.5737 216.329 20.0596C171.194 24.2429 127.524 30.395 87.1067 44.6655C70.1119 50.6661 49.663 58.9673 36.9084 68.2962C16.803 83.0016 11.8091 102.563 11.5935 120.156C11.3546 139.651 16.6722 159.524 43.2632 171.504C58.9991 178.594 83.0405 181.698 102.486 183.645C132.761 186.678 164.043 186.733 195.141 185.448C235.113 183.796 275.864 180.343 314.801 172.905C358.687 164.523 407.057 152.203 436.475 129.265C457.698 112.715 463.927 91.5029 460.235 72.1214C455.341 46.4375 433.894 26.2324 396.183 14.314C350.17 -0.228443 294.004 0.324426 241.938 7.78002C181.471 16.4386 123.164 34.8049 74.6296 59.1736C56.7808 68.1354 41.2457 78.3408 28.5495 89.9709C17.3987 100.185 5.98977 112.484 3.75835 124.563C1.51735 136.694 10.4105 146.521 24.9405 153.871C51.8048 167.461 88.4834 169.441 123.604 169.638C188.123 169.999 254.557 164.452 318.218 154.733C355.915 148.978 394.638 141.356 427.247 127.423C450.946 117.297 467.323 102.739 466.984 85.3912C466.693 70.533 457.452 55.8021 442.974 44.3868C422.663 28.3733 392.074 24.0685 362.315 16.5843" stroke="#F6A771" stroke-width="5" stroke-linecap="round"/>
</svg>
