<svg width="1920" height="619" viewBox="0 0 1920 619" fill="none" xmlns="http://www.w3.org/2000/svg">
<path d="M-23.3565 204.933C-24.8196 201.771 -31.4722 191.227 -25.652 188.163C-7.46864 178.591 51.3909 162.635 58.4188 160.766C110.595 146.894 229.658 118.041 281.651 110.931C408.944 93.5244 515.591 122.343 605.023 199.5C569.618 301.742 659.616 283.197 633.142 332.945C607.302 381.5 555.604 416.083 489.676 399.785C459.466 392.316 434.578 375.332 419.091 352.784C393.177 315.055 408.2 288.562 446.637 259.255C496.222 221.447 592.422 156.127 667.574 178.007C713.406 191.352 756.678 236.894 785.216 266.813C857.81 342.919 895.543 441.226 978.894 510.319C1086.05 599.145 1240.52 623.785 1379.74 572.672C1510.22 524.763 1618.69 443.888 1707.7 353.256C1758.43 301.596 1794.84 240.52 1835.38 182.64L1947 20" stroke="url(#paint0_linear_543_5096)" stroke-opacity="0.89" stroke-width="40" stroke-linecap="round"/>
<defs>
<linearGradient id="paint0_linear_543_5096" x1="959.472" y1="-2388.16" x2="959.472" y2="7972.54" gradientUnits="userSpaceOnUse">
<stop offset="0.08" stop-color="#F7B06E"/>
<stop offset="0.37" stop-color="#F49B75"/>
<stop offset="0.75" stop-color="#F2867C"/>
<stop offset="1" stop-color="#F27F7F"/>
</linearGradient>
</defs>
</svg>
