<svg width="50" height="50" viewBox="0 0 50 50" fill="none" xmlns="http://www.w3.org/2000/svg">
<g clip-path="url(#clip0_551_11972)">
<path d="M25 0C18.3711 0 12.0078 2.63555 7.32422 7.32227C2.63579 12.0108 0.00129871 18.3695 0 25C0 31.6277 2.63672 37.991 7.32422 42.6777C12.0078 47.3645 18.3711 50 25 50C31.6289 50 37.9922 47.3645 42.6758 42.6777C47.3633 37.991 50 31.6277 50 25C50 18.3723 47.3633 12.009 42.6758 7.32227C37.9922 2.63555 31.6289 0 25 0Z" fill="url(#paint0_linear_551_11972)"/>
<path d="M11.3164 24.7351C18.6055 21.5601 23.4648 19.4667 25.8945 18.4554C32.8398 15.5675 34.2813 15.066 35.2227 15.049C35.4297 15.0457 35.8906 15.0968 36.1914 15.34C36.4414 15.5451 36.5117 15.8224 36.5469 16.0171C36.5781 16.2117 36.6211 16.655 36.5859 17.0011C36.2109 20.9543 34.582 30.5472 33.7539 34.975C33.4063 36.8484 32.7148 37.4765 32.0469 37.5378C30.5938 37.6714 29.4922 36.5785 28.0859 35.657C25.8867 34.2144 24.6445 33.3167 22.5078 31.9093C20.0391 30.2828 21.6406 29.3886 23.0469 27.9277C23.4141 27.5453 29.8125 21.7269 29.9336 21.1992C29.9492 21.1332 29.9648 20.8871 29.8164 20.7574C29.6719 20.6273 29.457 20.6718 29.3008 20.707C29.0781 20.757 25.5664 23.0804 18.7539 27.6769C17.7578 28.3621 16.8555 28.696 16.043 28.6785C15.1523 28.6593 13.4336 28.1738 12.1563 27.7589C10.5938 27.25 9.34766 26.9808 9.45704 26.1164C9.51172 25.6664 10.1328 25.2058 11.3164 24.7351Z" fill="white"/>
</g>
<defs>
<linearGradient id="paint0_linear_551_11972" x1="2500" y1="0" x2="2500" y2="5000" gradientUnits="userSpaceOnUse">
<stop stop-color="#2AABEE"/>
<stop offset="1" stop-color="#229ED9"/>
</linearGradient>
<clipPath id="clip0_551_11972">
<rect width="50" height="50" fill="white"/>
</clipPath>
</defs>
</svg>
