<svg width="96" height="43" viewBox="0 0 96 43" fill="none" xmlns="http://www.w3.org/2000/svg">
<path d="M42.9005 14.1077V13.6218C42.9968 13.6218 43.0944 13.6139 43.1959 13.5994C43.2973 13.585 43.409 13.5679 43.5348 13.5482L43.7364 13.4445L43.9098 13.2672L43.9239 13.0465C43.9329 12.9388 43.9098 12.7957 43.852 12.6197L42.9878 10.1152L38.7095 11.9867L38.4784 12.6355L38.3205 13.0189L38.2922 13.2698C38.3693 13.3775 38.4848 13.4707 38.6376 13.5495L39.2 13.6086L39.1859 14.109H36.0748V13.6231L36.5216 13.5495L36.9543 13.4024L37.2573 13.1516L37.5308 12.8719L40.8872 4.91579L40.8294 4.5914L40.6997 4.35501L40.1374 4.28146L40.425 4.00173L40.8281 3.73644L41.8361 3.3385L42.9737 3.13231H44.0112C43.9252 3.2203 43.8571 3.29385 43.8096 3.35295C43.7608 3.41205 43.7236 3.46852 43.694 3.52237C43.6658 3.57621 43.6478 3.63531 43.644 3.69966C43.6388 3.76402 43.6363 3.84413 43.6363 3.94263V4.13437L46.7769 12.8863L47.252 13.3578L47.8285 13.6231V14.109H42.9018L42.9005 14.1077ZM41.3019 5.68014L39.7457 9.36399L42.2239 8.25949L41.3019 5.68146V5.68014Z" fill="white"/>
<path d="M55.4183 11.8829L55.1448 12.4424L54.7416 12.9283L54.3089 13.3263L53.7324 13.6507L53.1995 13.9015L52.5948 14.0341L51.8603 14.0932L51.0963 14.0052C51.0193 13.9961 50.9333 13.979 50.837 13.954C50.7407 13.9291 50.6303 13.8976 50.5057 13.8582L49.9009 13.5338L49.4836 13.2094L49.1524 12.8259L48.7928 12.2953L48.5476 11.6767L48.4038 11.1764L48.3755 10.7049L48.3614 10.219V9.82102L48.477 9.29044L48.6644 8.67187L48.9097 8.21484L49.2692 7.66981L49.6724 7.30209L50.2052 6.9186L50.7099 6.72685L51.4584 6.53511H52.0491L52.4523 6.52066H52.6102L53.518 6.6822L53.9507 6.72685H54.2961L54.671 6.56532L55.0459 6.30003L55.0601 6.71241V7.15499C55.0601 7.17469 55.0575 7.20884 55.0524 7.25875C55.0472 7.30734 55.0408 7.37694 55.0305 7.46494L54.7853 8.00996L54.4977 8.48144L54.1086 8.80583L53.6618 9.07112C53.6618 8.71784 53.6477 8.49589 53.6181 8.4079C53.6079 8.3593 53.5796 8.2805 53.5321 8.1715C53.4833 8.06381 53.4217 7.92591 53.3446 7.75912L52.754 7.42028L51.99 7.25875C51.6729 7.31785 51.4803 7.35724 51.4135 7.37694L50.9243 7.55424L50.5648 7.84842L50.3054 8.15837L50.1616 8.6154L50.0897 9.08688C50.0897 9.23397 50.0923 9.3548 50.0974 9.44804C50.1025 9.54129 50.1089 9.61221 50.1192 9.66211L50.263 10.2951L50.421 10.6629L50.6945 11.179L50.9821 11.5034L51.3133 11.7976L51.7461 12.0182L52.1788 12.2099L52.7116 12.2979H53.2304L53.7632 12.2099L54.3256 12.0484L55.0023 11.6951C55.0986 11.6465 55.1987 11.5901 55.3053 11.5257C55.4106 11.4614 55.5262 11.3904 55.6507 11.3116L55.4196 11.8869L55.4183 11.8829Z" fill="white"/>
<path d="M64.7248 11.3668L64.5232 12.0891L64.0764 13.0032L63.6437 13.652L62.0451 15.0966C61.9295 15.2437 61.8139 15.4157 61.6997 15.6127L61.5417 15.966L61.4981 16.4966C61.4878 16.536 61.4981 16.6437 61.5263 16.821L61.5841 17.1598L61.1514 16.6148L60.8638 16.0842L60.8201 15.5247L60.8638 14.9797L61.0512 14.4045C61.0705 14.3362 61.0988 14.2613 61.1373 14.1839C61.1758 14.1051 61.2284 14.0118 61.2952 13.9041L61.9141 12.8141L62.4765 11.6938L62.6498 10.9715L62.7217 10.6038L62.6203 10.0587C62.5818 9.95104 62.5484 9.85254 62.5189 9.76455C62.4906 9.67656 62.4559 9.59251 62.4174 9.51371C62.2158 9.27731 62.0476 9.10133 61.9128 8.98313L61.2939 8.45255L59.5657 9.04223V12.6381L59.6093 13.0505L59.6812 13.3158L59.8109 13.4773L59.9842 13.5653L60.503 13.6099L60.4889 14.1103H56.1669V13.6244H56.4699L56.859 13.4917L57.0169 13.1673L57.1029 12.6223L57.0747 4.72405L56.9887 4.42987L56.6715 4.17902L56.1823 4.11992L56.7293 3.76664L57.2917 3.50135L57.9683 3.28072L58.559 3.10342L59.5823 2.94188L59.5682 8.379L62.4495 6.83192L63.098 7.15631L63.6026 7.46625L64.0199 7.92328L64.3229 8.35011L64.5245 8.82159L64.6978 9.33772L64.7556 9.88275L64.7993 10.458L64.7274 11.372L64.7248 11.3668Z" fill="white"/>
<path d="M65.3 14.1077V13.6218H65.603L65.9921 13.4891L66.15 13.1647L66.2361 12.6197L66.2078 8.31728L66.1218 8.0231L65.8046 7.77225L65.3154 7.71315L65.8483 7.38876L66.4248 7.09458L67.6921 6.66775L68.7155 6.49046L68.7437 13.0478L68.8156 13.3131L68.9453 13.4747L69.1187 13.5627L69.6374 13.6073L69.6233 14.1077H65.3ZM68.6423 4.88427L68.4112 5.34131L67.9785 5.62104L67.4597 5.75369L66.9269 5.62104L66.5237 5.34131L66.308 4.92893L66.2065 4.443L66.2926 3.98597L66.5237 3.55914L66.9127 3.29385L67.4597 3.13231C67.5945 3.17171 67.705 3.20323 67.791 3.22818C67.877 3.25314 67.9399 3.27546 67.9785 3.29385L68.4112 3.55914C68.4689 3.66683 68.5164 3.76533 68.555 3.85332C68.5935 3.94131 68.6217 4.01092 68.641 4.05951L68.727 4.443L68.641 4.88559L68.6423 4.88427Z" fill="white"/>
<path d="M87.5429 11.942L87.2257 12.3846L86.793 12.797L86.3038 13.1805L85.7568 13.5049L85.2098 13.7557L84.6333 13.933L84.0144 14.0657L83.6112 14.0801H82.9628C82.914 14.0709 82.7843 14.0407 82.5738 13.9921C82.525 13.9829 82.4723 13.9672 82.4158 13.9475C82.3581 13.9278 82.3054 13.9081 82.2579 13.8884L81.7109 13.6677L81.2217 13.3144L80.789 12.8719L80.4577 12.2966L80.1264 11.6334L79.9249 10.7784C79.8966 10.6602 79.8812 10.4396 79.8812 10.1152L80.0109 9.37844L80.1688 8.84786L80.486 8.27262L80.8172 7.8458L81.3064 7.43342L81.7533 7.15368L82.3722 6.91728L83.0488 6.71109L83.5676 6.66644L84.0285 6.65199H84.2597L84.8066 6.73999L85.4409 6.90152L86.0033 7.18126L86.4926 7.461L86.8675 7.85893L87.2707 8.37506L87.0395 8.66925L86.7083 8.99364L86.3629 9.30358L85.8878 9.67131L84.894 10.3043L83.6844 10.9531L82.4017 11.4837L82.6328 11.7779L82.95 12.0287L83.3095 12.1758L83.7987 12.294H84.7925L85.4551 12.1469L86.0598 11.9263L86.7519 11.5585L87.4581 11.1606L87.8754 11.397L87.5442 11.942H87.5429ZM84.8773 8.50902L84.7617 8.33172L84.3008 7.8458L83.8539 7.6094L83.3493 7.38876H83.0899L82.8742 7.37432L82.2695 7.46231L82.0537 7.65405L81.8804 7.87469L81.7366 8.24242L81.6352 8.62591V9.62797L81.7931 10.1874L81.9947 10.7469L83.0604 10.4081L83.5214 10.1874L83.9823 9.9077L84.2995 9.64241L84.5871 9.36268L84.7746 9.08294L84.9042 8.8032C84.9042 8.68501 84.894 8.58782 84.876 8.50902H84.8773Z" fill="white"/>
<path d="M95.8979 12.3544L95.7104 12.7379L95.3933 13.0912L94.9901 13.4156L94.4572 13.6664L93.8525 13.9028L93.1758 14.0355L92.3399 14.0945H91.3885C91.341 14.0854 91.3037 14.0775 91.2806 14.0722C91.2562 14.067 91.2395 14.0643 91.2305 14.0643L90.6258 14.0052L90.0492 13.9606L89.4008 13.9317L89.1415 14.0052C89.0362 14.0341 88.9643 14.0643 88.9257 14.0932L88.3929 14.373V13.8135L88.4507 13.43L88.6664 12.8705L88.9399 12.34C89.0362 12.2323 89.1132 12.143 89.171 12.0747C89.2288 12.0064 89.2763 11.9617 89.3148 11.942L89.7616 11.6321L89.7758 11.9118L89.8772 12.428L90.0351 12.7221L90.2508 12.9428L90.7118 13.1345L91.0431 13.2225L91.7197 13.2961L92.4259 13.3105C92.6943 13.2816 92.8535 13.2514 92.901 13.2225L93.3042 13.0019L93.5353 12.6775L93.6509 12.294L93.5649 11.9105C93.5546 11.8317 93.4878 11.6991 93.3633 11.5126L92.9601 11.2184L92.4272 10.982L91.3615 10.6878L90.4255 10.3043L89.8489 9.93659L89.3597 9.46511L89.1723 9.03829L89.1004 8.61146L89.23 8.18463L89.4458 7.7867L89.8785 7.41897L90.3536 7.13923L90.8723 6.9777L91.4629 6.81616L92.702 6.77151L93.5803 6.90415L94.0695 6.99214L94.5022 6.93304L94.9349 6.7413L95.3381 6.49046V6.93304C95.3381 7.00134 95.3355 7.06832 95.3304 7.13135C95.3252 7.19571 95.3188 7.25612 95.3085 7.31522L95.193 7.65405C95.1442 7.77225 95.0967 7.86024 95.0492 7.91934C94.9824 7.95874 94.9118 7.99552 94.8399 8.02966C94.768 8.06381 94.6832 8.09533 94.5882 8.12553C94.2428 8.06643 94.0502 8.01784 94.0117 7.97844L93.5649 7.69871L93.118 7.49252C92.9742 7.42422 92.6661 7.38876 92.1961 7.38876C92.0613 7.40846 91.9509 7.42816 91.8648 7.44786C91.7788 7.46756 91.7159 7.48726 91.6774 7.50696L91.3743 7.7276L91.3166 8.08088L91.4463 8.50771L91.8058 8.8321L92.3104 9.11183L92.7855 9.21558C92.833 9.23528 92.8792 9.25236 92.9229 9.2668C92.9665 9.28125 93.0114 9.29832 93.0602 9.31802L94.0104 9.59776L94.6588 9.92215L95.1917 10.2754L95.5512 10.6878L95.8388 11.0713L95.9685 11.4981L95.9968 11.925C95.9685 12.1508 95.9338 12.2927 95.8953 12.3518L95.8979 12.3544Z" fill="white"/>
<path d="M57.2159 26.5146L57.1376 27.1988L57.0439 27.9146L56.8102 28.5344L56.5765 29.0585L56.2349 29.5194L55.8613 29.9016L54.9445 30.5372L54.4155 30.7763L53.8865 30.9825L53.2958 31.1414L52.1762 31.3476L45.1809 31.4106V30.8866L45.6316 30.8551L45.9423 30.7434C46.0463 30.574 46.108 30.4519 46.1285 30.3783C46.1388 30.3468 46.1491 30.2825 46.1593 30.1879C46.1696 30.092 46.185 29.966 46.2056 29.8057L46.1902 22.2542L46.081 21.9679L45.8948 21.7288L45.6778 21.6658C45.5738 21.6133 45.4133 21.5765 45.1963 21.5542L44.4657 21.5069L44.4966 21.5384L44.9318 21.109L45.6162 20.4891L46.2377 20.124L46.9066 19.8062L47.6218 19.6L48.0879 19.4883L48.7248 19.4253C49.0458 19.3938 49.3257 19.378 49.5645 19.378L51.0719 19.5369L51.9733 19.8075L52.5177 19.9821L53.8544 20.6178L55.0665 21.4767L55.8908 22.3198L56.2799 22.8924L56.6214 23.4966L56.8551 24.1165L57.0259 24.7679L57.1504 25.6268C57.1504 25.6478 57.1556 25.6688 57.1658 25.6898L57.2121 25.9446V26.5172L57.2159 26.5146ZM54.0136 26.705L53.9674 26.0536L53.7812 25.0673L53.5796 24.1453L53.4088 23.6529C53.3678 23.536 53.3202 23.4309 53.2689 23.335L52.9427 22.6193L52.4921 22.0152C52.2751 21.7183 52.1236 21.5279 52.0414 21.4425L51.5124 21.0289L50.9834 20.6467L50.4235 20.4405L49.8021 20.2343L49.2114 20.187L48.7916 20.1713H48.59L47.9685 20.2986L47.347 20.4891L46.7718 20.7911L46.212 21.1733L47.4241 20.9343H48.6208L49.196 21.0302L49.8329 21.1891C49.5941 21.411 49.4438 21.566 49.3822 21.65C49.309 21.7564 49.2474 21.9574 49.196 22.2542V30.8866L50.3003 30.7434L51.357 30.4729L52.0876 30.1393L52.8182 29.6941L53.2535 29.2174L53.6104 28.6934L53.8595 28.0577L53.9995 27.4221V27.0399L54.0149 26.7063L54.0136 26.705Z" fill="white"/>
<path d="M65.5928 25.0686C65.5722 25.1645 65.5517 25.2328 65.5311 25.2748L65.3296 25.6885L64.9726 25.8947L64.599 25.9748L64.2099 25.9118L63.8208 25.7371L63.2302 25.2446C63.1365 25.1605 62.94 25.0594 62.6396 24.9425C62.298 24.9425 61.9192 25.0331 61.5045 25.2131L61.4891 29.8241L61.5353 30.2693L61.6124 30.5556L61.7523 30.7303L61.9385 30.8262L62.4983 30.8735L62.4829 31.4145H57.8194V30.8905H58.1455L58.5654 30.7474L58.7362 30.398L58.8299 29.8097L58.7991 25.5493L58.7054 25.2157C58.6219 25.0988 58.5089 25.0095 58.3638 24.9452L57.8348 24.9294L58.4255 24.5472L59.0315 24.2136L59.653 23.9917L60.399 23.7527L61.5019 23.5465L61.4865 24.5328L62.1555 24.1348L62.8553 23.7697L63.3676 23.6266L63.9736 23.4834L64.7659 23.5635L65.1074 23.7697L65.3565 24.0088L65.4811 24.2635L65.6518 24.7088C65.6313 24.8572 65.6107 24.9793 65.5902 25.0739L65.5928 25.0686Z" fill="white"/>
<path d="M70.8623 31.4119H66.1988V30.8879H66.525L66.9448 30.7448L67.1156 30.3954L67.2093 29.807L67.1785 25.1645L67.0848 24.8467L66.7432 24.5761L66.2142 24.5131L66.7895 24.1637L67.4109 23.8459L68.7784 23.3849L69.8814 23.1945L69.9122 30.2693L69.9892 30.5556L70.1292 30.7303L70.3154 30.8262L70.8752 30.8735L70.8598 31.4145L70.8623 31.4119ZM69.8056 21.4596L69.5565 21.9521L69.0904 22.2542L68.5306 22.3973L67.9553 22.2542L67.5201 21.9521L67.2864 21.5069L67.1772 20.9829L67.271 20.4904L67.5201 20.0294L67.9399 19.7431L68.5306 19.5684C68.6757 19.6105 68.7951 19.6459 68.8875 19.6722C68.9813 19.6985 69.048 19.7221 69.0891 19.7431L69.5552 20.0294C69.6169 20.1463 69.6695 20.2514 69.7106 20.3472C69.7517 20.4431 69.7825 20.5167 69.8043 20.5692L69.898 20.9829L69.8043 21.4596H69.8056Z" fill="white"/>
<path d="M76.1011 31.4119H71.4376V30.8879H71.7637L72.1836 30.7448L72.3543 30.3954L72.4481 29.807L72.4173 21.2849L72.3235 20.9671L71.982 20.6966L71.453 20.6335L72.0436 20.2356L72.6497 19.9335L74.0171 19.5199L75.1201 19.2979L75.2292 30.5543L75.3692 30.729L75.5554 30.8249L76.1152 30.8721L76.0998 31.4132L76.1011 31.4119Z" fill="white"/>
<path d="M81.3385 31.4119H76.675V30.8879H77.0012L77.421 30.7448L77.5918 30.3954L77.6855 29.807L77.6547 21.2849L77.561 20.9671L77.2195 20.6966L76.6904 20.6335L77.2811 20.2356L77.8871 19.9335L79.2546 19.5199L80.3576 19.2979L80.4667 30.5543L80.6067 30.729L80.7928 30.8249L81.3527 30.8721L81.3373 31.4132L81.3385 31.4119Z" fill="white"/>
<path d="M77.0204 1.6417C77.0808 1.71524 77.0435 1.79404 77.0692 1.87022C77.0975 1.79667 77.0602 1.71524 77.1116 1.64433C77.172 1.70474 77.1373 1.7796 77.1604 1.84395C77.1899 1.7796 77.1501 1.70999 77.2028 1.65221C77.2734 1.69949 77.2233 1.77828 77.2528 1.83607C77.2849 1.7796 77.2426 1.70474 77.3004 1.64827C77.3556 1.70474 77.326 1.77172 77.3414 1.83476C77.3761 1.77828 77.3363 1.70605 77.3864 1.65221C77.4531 1.68898 77.4108 1.75858 77.4365 1.80586C77.4711 1.76121 77.4223 1.69161 77.484 1.65483C77.5494 1.68898 77.4981 1.76252 77.5315 1.80586C77.5584 1.7599 77.5199 1.69161 77.5738 1.65089C77.6329 1.67979 77.5969 1.7402 77.6226 1.77697C77.6522 1.74151 77.6136 1.67979 77.6689 1.65352C77.7292 1.67585 77.6855 1.73888 77.7151 1.77303C77.7446 1.74151 77.7074 1.6811 77.7575 1.65352C77.8114 1.66009 77.7857 1.70999 77.7998 1.73888C77.8422 1.76646 77.8024 1.54977 77.8897 1.70605C77.9077 1.61543 77.9745 1.69555 78.0207 1.67322C78.0797 1.64433 78.1696 1.65221 78.2467 1.64827C78.5587 1.63382 78.5587 1.63645 78.5587 1.9674C78.5587 4.06739 78.5561 6.16738 78.5625 8.26869C78.5625 8.44598 78.5099 8.54054 78.3532 8.61409C77.3491 9.08688 76.3515 9.12628 75.3525 8.59833C75.2267 8.53135 75.1817 8.44861 75.1817 8.30546C75.1856 6.14243 75.1843 3.9794 75.1856 1.81768C75.1856 1.62463 75.1856 1.63513 75.3808 1.64301C75.4899 1.64695 75.5965 1.69686 75.7069 1.65746C75.7351 1.64695 75.7364 1.67059 75.7467 1.68767C75.807 1.7993 75.7814 1.6417 75.8109 1.66271C75.8623 1.68241 75.8199 1.74414 75.861 1.76646C75.9046 1.74545 75.8635 1.68241 75.9175 1.66009C75.9277 1.69817 75.9367 1.73494 75.947 1.77303C75.9971 1.74676 75.956 1.68373 76.0035 1.66534C76.0433 1.7008 76.0086 1.75727 76.0407 1.80061C76.0947 1.77172 76.0446 1.69948 76.0921 1.66797C76.1435 1.70736 76.0934 1.77828 76.137 1.82425C76.1884 1.78354 76.1345 1.7113 76.1833 1.67059C76.2346 1.71262 76.1897 1.7796 76.2269 1.83344C76.2796 1.78879 76.2269 1.7113 76.2757 1.66928C76.3296 1.7205 76.2719 1.80061 76.3232 1.85577C76.3733 1.80192 76.3142 1.7205 76.3694 1.66928C76.4208 1.72444 76.3682 1.80324 76.4144 1.86365C76.4606 1.80324 76.4118 1.72706 76.458 1.66271C76.5094 1.72706 76.4709 1.80586 76.5043 1.87678C76.5556 1.81112 76.4991 1.72444 76.5569 1.65877C76.6198 1.71787 76.58 1.79798 76.6044 1.86759C76.6429 1.80192 76.5954 1.7205 76.6468 1.65483C76.72 1.71787 76.6635 1.80718 76.702 1.87416C76.7315 1.80455 76.6879 1.72575 76.7418 1.65352C76.8124 1.71656 76.7611 1.80586 76.7932 1.87547C76.824 1.80455 76.7816 1.72706 76.8317 1.65483C76.9062 1.71524 76.8509 1.80455 76.8856 1.87416C76.9113 1.80455 76.8779 1.72838 76.9203 1.65221C76.9948 1.71524 76.946 1.80324 76.9768 1.87153C77.0076 1.80455 76.9665 1.72706 77.0204 1.64695V1.6417ZM76.842 4.06214C77.041 4.06214 77.24 4.06214 77.4377 4.06214C77.7896 4.06083 77.742 4.09366 77.7523 3.74432C77.7562 3.60904 77.7164 3.56177 77.5803 3.56308C77.1373 3.57096 76.693 3.56308 76.25 3.56702C75.8982 3.56965 75.9316 3.50661 75.9265 3.90323C75.9252 4.03062 75.9804 4.06476 76.0934 4.06214C76.3425 4.05689 76.5929 4.06083 76.8432 4.06214H76.842Z" fill="url(#paint0_linear_543_5943)"/>
<path d="M71.5405 1.65089C71.5868 1.66534 71.5624 1.71393 71.5829 1.74282C71.6124 1.7205 71.5778 1.65877 71.633 1.65089C71.6869 1.67847 71.6484 1.73888 71.6766 1.77434C71.7049 1.73888 71.6638 1.67716 71.7242 1.65221C71.7832 1.68767 71.7396 1.75727 71.7678 1.80586C71.7935 1.75596 71.7601 1.69554 71.8115 1.64958C71.8744 1.68373 71.8333 1.75333 71.8577 1.80192C71.8924 1.75727 71.8461 1.68898 71.9116 1.64827C71.963 1.7008 71.927 1.77566 71.9501 1.83738C71.981 1.77697 71.9399 1.70605 71.9964 1.64827C72.0618 1.69686 72.0143 1.77566 72.0426 1.83213C72.0798 1.77828 72.0246 1.69817 72.0978 1.64827C72.144 1.70211 72.1158 1.76909 72.1312 1.82819C72.1723 1.77566 72.1209 1.69948 72.189 1.64827C72.2455 1.7113 72.1992 1.79667 72.2288 1.86628C72.2622 1.79667 72.2146 1.71524 72.2776 1.64827C72.3418 1.71262 72.2891 1.7993 72.3225 1.86628C72.3559 1.79798 72.3084 1.71656 72.3713 1.64564C72.4329 1.71262 72.3828 1.79798 72.4149 1.86759C72.4458 1.80061 72.4047 1.71918 72.4676 1.64433C72.5151 1.71656 72.4804 1.79667 72.5035 1.87153C72.5395 1.79798 72.492 1.71524 72.5613 1.64827C72.6101 1.72181 72.5639 1.81112 72.6037 1.88992C72.6576 1.81506 72.5998 1.72706 72.6538 1.66009C72.7039 1.72575 72.6589 1.80455 72.691 1.87941C72.7552 1.81768 72.6923 1.72969 72.7449 1.66009C72.795 1.71787 72.7475 1.79798 72.7899 1.8584C72.84 1.79667 72.7886 1.71918 72.8361 1.6614C72.89 1.71787 72.84 1.79404 72.8823 1.86102C72.9311 1.7993 72.8785 1.71524 72.9298 1.65877C72.9799 1.71656 72.9273 1.79536 72.9761 1.85446C73.0223 1.79536 72.9761 1.71918 73.0172 1.66009C73.0724 1.70474 73.0261 1.77303 73.0711 1.83476C73.0839 1.76909 73.0942 1.71393 73.1057 1.65352C73.1635 1.70474 73.1173 1.77303 73.1584 1.82556C73.2046 1.7796 73.1635 1.71262 73.202 1.66009C73.2534 1.6916 73.2136 1.75727 73.2483 1.79273C73.2996 1.75727 73.2508 1.69029 73.2958 1.65352C73.3574 1.66928 73.3266 1.73232 73.351 1.77172C73.3831 1.73757 73.3484 1.6811 73.3882 1.65221C73.3998 1.66797 73.4537 1.67716 73.4666 1.66665C73.4768 1.65877 73.4897 1.65483 73.5012 1.64827C73.5192 1.72312 73.6258 1.61412 73.6335 1.71393C73.672 1.59836 73.767 1.66534 73.8338 1.65483C74.1817 1.59967 74.183 1.60361 74.183 1.95427C74.183 4.08578 74.183 6.2186 74.183 8.35011C74.183 8.44861 74.1599 8.51559 74.0675 8.56287C73.0672 9.07375 72.0606 9.13285 71.0385 8.62459C70.8818 8.54711 70.8215 8.44992 70.8215 8.26475C70.8279 6.12798 70.8253 3.99122 70.8266 1.85314C70.8266 1.62988 70.8266 1.63645 71.0398 1.64039C71.1438 1.6417 71.2478 1.69817 71.3518 1.64039C71.3685 1.71656 71.4982 1.622 71.4879 1.73626C71.5277 1.7205 71.484 1.65352 71.5418 1.64827L71.5405 1.65089ZM72.4548 3.56571C72.2519 3.56571 72.0477 3.56439 71.8448 3.56571C71.511 3.56833 71.5572 3.52499 71.5457 3.87827C71.5405 4.02668 71.5958 4.06476 71.7319 4.06345C72.1736 4.05688 72.6153 4.06082 73.0582 4.06082C73.3831 4.06082 73.3792 4.06082 73.3754 3.72856C73.3754 3.61036 73.3381 3.56045 73.2175 3.56308C72.9632 3.56964 72.709 3.56571 72.456 3.56439L72.4548 3.56571Z" fill="url(#paint1_linear_543_5943)"/>
<path d="M75.1856 12.3964C75.1856 12.0103 75.1856 11.6255 75.1856 11.2394C75.1856 11.0687 75.1971 11.0634 75.3487 11.1265C75.8892 11.351 76.4375 11.5493 77.0346 11.5008C77.4968 11.4627 77.9308 11.3116 78.3584 11.1383C78.5561 11.0582 78.5587 11.0595 78.5587 11.2775C78.5587 12.034 78.5561 12.7891 78.5612 13.5456C78.5612 13.6782 78.5201 13.7544 78.402 13.8122C77.3838 14.3126 76.3682 14.3625 75.3461 13.8201C75.2254 13.7557 75.1779 13.6782 75.1817 13.539C75.1894 13.1582 75.1843 12.7786 75.1843 12.3977L75.1856 12.3964Z" fill="url(#paint2_linear_543_5943)"/>
<path d="M70.8251 12.4004C70.8251 12.0143 70.8251 11.6295 70.8251 11.2433C70.8251 11.0674 70.8341 11.0634 70.9985 11.1317C71.5339 11.3563 72.0783 11.548 72.6702 11.4981C73.1325 11.46 73.5665 11.309 73.994 11.1357C74.1777 11.0608 74.1802 11.0621 74.1802 11.2617C74.1802 12.0235 74.1776 12.7839 74.1828 13.5456C74.1828 13.6769 74.1468 13.7531 74.0274 13.8135C73.0362 14.3073 72.0436 14.3533 71.0395 13.8555C70.8829 13.778 70.8123 13.6848 70.82 13.497C70.8367 13.1332 70.8251 12.7668 70.8251 12.403V12.4004Z" fill="url(#paint3_linear_543_5943)"/>
<path d="M78.56 9.80001C78.56 9.95104 78.5561 10.1021 78.56 10.2531C78.5638 10.3529 78.5304 10.4173 78.4393 10.4632C77.4352 10.9794 76.4259 11.0372 75.4013 10.525C75.2446 10.4475 75.1689 10.3555 75.1805 10.1664C75.1971 9.88669 75.183 9.60433 75.1856 9.32328C75.1856 9.16568 75.201 9.1578 75.3448 9.21953C75.7724 9.4047 76.2102 9.55442 76.6776 9.59907C77.0615 9.63585 77.4262 9.54785 77.7883 9.43885C77.9886 9.37844 78.1837 9.30095 78.3789 9.22741C78.5587 9.15911 78.5599 9.1578 78.5612 9.36136C78.5612 9.50714 78.5612 9.65292 78.5612 9.7987L78.56 9.80001Z" fill="url(#paint4_linear_543_5943)"/>
<path d="M74.1802 9.80001C74.1802 9.9563 74.1764 10.1126 74.1815 10.2689C74.1841 10.3634 74.152 10.4238 74.0672 10.4672C73.0336 10.9886 72 11.045 70.9599 10.4829C70.8623 10.4304 70.82 10.366 70.8225 10.2505C70.829 9.93791 70.8277 9.62534 70.8225 9.31277C70.8213 9.19326 70.8508 9.16699 70.9638 9.2169C71.4003 9.40733 71.8472 9.5623 72.3261 9.60301C72.737 9.63716 73.1248 9.53472 73.5087 9.4139C73.6884 9.35742 73.8656 9.28913 74.039 9.21427C74.1545 9.16568 74.1828 9.20114 74.1802 9.31671C74.1751 9.47825 74.1802 9.63979 74.1789 9.80132L74.1802 9.80001Z" fill="url(#paint5_linear_543_5943)"/>
<path d="M4.47023 11.179L7.60706 12.3347C7.8446 12.4227 8.10911 12.3623 8.22724 12.1929C9.18767 10.8139 13.1077 5.30585 13.8987 4.19478C13.9847 4.07396 13.977 3.91899 13.8769 3.79028L13.0333 2.69629C12.8432 2.44939 12.4169 2.40605 12.2077 2.61487C10.7054 4.1081 5.71829 9.06718 4.23911 10.5552C4.04138 10.7535 4.15694 11.0647 4.47023 11.1803V11.179Z" fill="url(#paint6_linear_543_5943)"/>
<path d="M19.5637 16.7369L24.3775 18.5099C24.7164 18.6347 25.0028 18.2276 24.7794 17.9386L22.0316 14.3717C21.9058 14.2088 21.6733 14.1852 21.5193 14.3191L19.4533 16.1131C19.244 16.2957 19.3044 16.6411 19.5637 16.7369Z" fill="url(#paint7_linear_543_5943)"/>
<path d="M20.3483 12.1876L19.1772 10.6681C18.9936 10.4304 18.5892 10.3792 18.3709 10.5683C17.4182 11.3931 15.1622 13.3473 14.1889 14.1917C13.9655 14.3861 14.072 14.7171 14.3982 14.8366L17.6827 16.0461C17.9279 16.1368 18.2014 16.0685 18.3131 15.8898L20.3816 12.5777C20.4561 12.4582 20.4433 12.3111 20.3495 12.1889L20.3483 12.1876Z" fill="url(#paint8_linear_543_5943)"/>
<path d="M9.40852 12.9979L12.6455 14.1904C12.8907 14.281 13.1642 14.2127 13.2759 14.0341C13.9873 12.8955 16.3974 9.04354 16.9623 8.13998C17.0368 8.02047 17.024 7.87469 16.9302 7.75124L16.1431 6.73079C15.9557 6.48783 15.5397 6.44186 15.3265 6.64017C14.0707 7.81034 10.4499 11.1829 9.18896 12.3636C8.97838 12.5606 9.09009 12.881 9.40981 12.9979H9.40852Z" fill="url(#paint9_linear_543_5943)"/>
<path d="M2.51212 10.4199C2.93841 10.5709 3.41093 10.4133 3.66773 10.0325C4.51646 8.773 6.41165 6.01504 7.85487 3.91636C8.12708 3.51974 7.42602 3.08766 7.03183 3.40811L0.114885 9.06193C-0.0725804 9.21558 -0.0225041 9.52159 0.206049 9.6017L2.51341 10.4199H2.51212Z" fill="url(#paint10_linear_543_5943)"/>
<path d="M47.0761 39.5532C45.5058 39.0252 44.259 38.3094 42.9018 37.3048C40.7241 35.692 38.8289 34.0596 37.8891 31.4185C36.7797 28.298 35.8847 25.1225 34.8896 21.9626C34.5648 20.9317 34.2207 19.9073 33.8598 18.8881C33.499 17.869 33.1228 16.8564 32.7363 15.8478C32.3486 14.8392 31.9505 13.8345 31.5448 12.8338C31.139 11.833 30.7269 10.8336 30.3121 9.83678C29.8974 8.83998 29.4801 7.84448 29.0654 6.84899C28.6506 5.85481 28.2372 4.85932 27.8302 3.8612C27.7801 3.73775 27.7403 3.59985 27.6786 3.48297C27.5978 3.33062 27.4129 3.33325 27.2678 3.28334C27.1291 3.23606 26.9917 3.18747 26.853 3.14019C26.4473 2.99967 26.0415 2.85914 25.6358 2.71862C25.1183 2.54001 24.6009 2.36008 24.0847 2.18147C23.53 1.98973 22.9753 1.79667 22.4206 1.60493C21.9019 1.425 21.3844 1.24639 20.8657 1.06647C20.4574 0.924629 20.0491 0.784105 19.6408 0.642267C19.4161 0.564781 19.1926 0.487295 18.9679 0.40981C18.9461 0.40193 18.9243 0.395363 18.9025 0.387484C17.2127 -0.198255 15.3714 0.686919 14.7346 2.3916L26.021 16.7882C26.1096 16.4664 26.1841 16.1262 26.2893 15.7585C26.5731 16.1578 26.3792 16.557 26.5038 16.888C26.5333 16.9641 26.5256 17.0548 26.5397 17.1375C26.7169 18.1107 26.8466 18.1671 27.6825 17.6668C27.852 17.5656 27.9855 17.3818 28.2898 17.3844C28.051 17.6983 27.8507 17.9754 27.635 18.2394C27.3384 18.6032 27.4424 18.8448 27.843 18.9972C28.1126 19.0996 28.3861 19.1915 28.6596 19.2795C28.9113 19.3596 29.1668 19.4253 29.4236 19.5868C28.9139 19.663 28.3977 19.7103 27.8956 19.8219C27.2652 19.9624 27.2215 20.0951 27.5169 20.6861C27.5823 20.8174 27.6594 20.9422 27.73 21.0709C27.7981 21.1943 27.8648 21.3178 27.8494 21.5279C27.6401 21.3493 27.4347 21.1654 27.2215 20.9921C26.7015 20.5705 26.5333 20.6046 26.2855 21.2495C26.107 21.7131 25.9915 22.2016 25.8271 22.7467C25.5485 22.3829 25.6923 21.9928 25.6332 21.6527C25.4162 20.4155 25.3212 20.3604 24.2529 21.0157C24.1528 21.0774 24.0706 21.1904 23.8587 21.1392C24.0821 20.845 24.2863 20.5731 24.4943 20.3039C24.5238 20.2658 24.5482 20.2304 24.5701 20.1949C24.4275 20.1791 24.285 20.1463 24.1463 20.0964L11.5169 15.5431C11.0225 16.385 10.6989 17.2898 10.7709 18.3287C10.8723 19.793 11.8623 21.0433 12.9845 21.96C14.2646 23.0041 15.7592 23.7435 17.2859 24.3502C19.226 25.1211 21.2637 25.7043 23.0138 26.856C24.7318 27.9881 26.0788 29.6074 27.3987 31.2031C28.2051 32.1789 29.0179 33.1613 29.6316 34.2736C30.1439 35.2021 30.515 36.2121 31.0851 37.1051C33.5787 41.007 38.2858 39.8762 41.7706 42.1102C42.871 42.8154 44.0394 42.9231 45.2156 42.8693C46.2184 42.8233 47.2828 42.6158 47.8388 41.5179C48.4693 40.2728 47.9107 39.8329 47.0723 39.5505L47.0761 39.5532Z" fill="white"/>
<defs>
<linearGradient id="paint0_linear_543_5943" x1="48.0531" y1="-84.734" x2="48.0531" y2="501.129" gradientUnits="userSpaceOnUse">
<stop offset="0.08" stop-color="#F7B06E"/>
<stop offset="0.37" stop-color="#F49B75"/>
<stop offset="0.75" stop-color="#F2867C"/>
<stop offset="1" stop-color="#F27F7F"/>
</linearGradient>
<linearGradient id="paint1_linear_543_5943" x1="47.9983" y1="-84.5944" x2="47.9983" y2="500.742" gradientUnits="userSpaceOnUse">
<stop offset="0.08" stop-color="#F7B06E"/>
<stop offset="0.37" stop-color="#F49B75"/>
<stop offset="0.75" stop-color="#F2867C"/>
<stop offset="1" stop-color="#F27F7F"/>
</linearGradient>
<linearGradient id="paint2_linear_543_5943" x1="48.0379" y1="-329.136" x2="48.0379" y2="1050.39" gradientUnits="userSpaceOnUse">
<stop offset="0.08" stop-color="#F7B06E"/>
<stop offset="0.37" stop-color="#F49B75"/>
<stop offset="0.75" stop-color="#F2867C"/>
<stop offset="1" stop-color="#F27F7F"/>
</linearGradient>
<linearGradient id="paint3_linear_543_5943" x1="48.0249" y1="-329.243" x2="48.0249" y2="1050.7" gradientUnits="userSpaceOnUse">
<stop offset="0.08" stop-color="#F7B06E"/>
<stop offset="0.37" stop-color="#F49B75"/>
<stop offset="0.75" stop-color="#F2867C"/>
<stop offset="1" stop-color="#F27F7F"/>
</linearGradient>
<linearGradient id="paint4_linear_543_5943" x1="48.0329" y1="-556.871" x2="48.0329" y2="1977.27" gradientUnits="userSpaceOnUse">
<stop offset="0.08" stop-color="#F7B06E"/>
<stop offset="0.37" stop-color="#F49B75"/>
<stop offset="0.75" stop-color="#F2867C"/>
<stop offset="1" stop-color="#F27F7F"/>
</linearGradient>
<linearGradient id="paint5_linear_543_5943" x1="48.0346" y1="-559.91" x2="48.0346" y2="1986.99" gradientUnits="userSpaceOnUse">
<stop offset="0.08" stop-color="#F7B06E"/>
<stop offset="0.37" stop-color="#F49B75"/>
<stop offset="0.75" stop-color="#F2867C"/>
<stop offset="1" stop-color="#F27F7F"/>
</linearGradient>
<linearGradient id="paint6_linear_543_5943" x1="48.0033" y1="-66.4592" x2="48.0033" y2="368.311" gradientUnits="userSpaceOnUse">
<stop offset="0.08" stop-color="#F7B06E"/>
<stop offset="0.37" stop-color="#F49B75"/>
<stop offset="0.75" stop-color="#F2867C"/>
<stop offset="1" stop-color="#F27F7F"/>
</linearGradient>
<linearGradient id="paint7_linear_543_5943" x1="47.9844" y1="-304.488" x2="47.9844" y2="818.924" gradientUnits="userSpaceOnUse">
<stop offset="0.08" stop-color="#F7B06E"/>
<stop offset="0.37" stop-color="#F49B75"/>
<stop offset="0.75" stop-color="#F2867C"/>
<stop offset="1" stop-color="#F27F7F"/>
</linearGradient>
<linearGradient id="paint8_linear_543_5943" x1="47.9936" y1="-177.275" x2="47.9936" y2="586.337" gradientUnits="userSpaceOnUse">
<stop offset="0.08" stop-color="#F7B06E"/>
<stop offset="0.37" stop-color="#F49B75"/>
<stop offset="0.75" stop-color="#F2867C"/>
<stop offset="1" stop-color="#F27F7F"/>
</linearGradient>
<linearGradient id="paint9_linear_543_5943" x1="47.9849" y1="-107.609" x2="47.9849" y2="449.973" gradientUnits="userSpaceOnUse">
<stop offset="0.08" stop-color="#F7B06E"/>
<stop offset="0.37" stop-color="#F49B75"/>
<stop offset="0.75" stop-color="#F2867C"/>
<stop offset="1" stop-color="#F27F7F"/>
</linearGradient>
<linearGradient id="paint10_linear_543_5943" x1="47.9969" y1="-96.4954" x2="47.9969" y2="502.569" gradientUnits="userSpaceOnUse">
<stop offset="0.08" stop-color="#F7B06E"/>
<stop offset="0.37" stop-color="#F49B75"/>
<stop offset="0.75" stop-color="#F2867C"/>
<stop offset="1" stop-color="#F27F7F"/>
</linearGradient>
</defs>
</svg>
