<svg width="40" height="40" viewBox="0 0 40 40" fill="none" xmlns="http://www.w3.org/2000/svg">
<path opacity="0.2" d="M16.875 22.5H6.25C5.91848 22.5 5.60054 22.3683 5.36612 22.1339C5.1317 21.8995 5 21.5815 5 21.25V11.25C5 10.9185 5.1317 10.6005 5.36612 10.3661C5.60054 10.1317 5.91848 10 6.25 10H15.625C15.9565 10 16.2745 10.1317 16.5089 10.3661C16.7433 10.6005 16.875 10.9185 16.875 11.25V22.5Z" fill="#F249C8"/>
<path opacity="0.2" d="M35 22.5H24.375C24.0435 22.5 23.7255 22.3683 23.4911 22.1339C23.2567 21.8995 23.125 21.5815 23.125 21.25V11.25C23.125 10.9185 23.2567 10.6005 23.4911 10.3661C23.7255 10.1317 24.0435 10 24.375 10H33.75C34.0815 10 34.3995 10.1317 34.6339 10.3661C34.8683 10.6005 35 10.9185 35 11.25V22.5Z" fill="#F249C8"/>
<path d="M16.875 22.5H6.25C5.91848 22.5 5.60054 22.3683 5.36612 22.1339C5.1317 21.8995 5 21.5815 5 21.25V11.25C5 10.9185 5.1317 10.6005 5.36612 10.3661C5.60054 10.1317 5.91848 10 6.25 10H15.625C15.9565 10 16.2745 10.1317 16.5089 10.3661C16.7433 10.6005 16.875 10.9185 16.875 11.25V25C16.875 26.6576 16.2165 28.2473 15.0444 29.4194C13.8723 30.5915 12.2826 31.25 10.625 31.25" stroke="#F249C8" stroke-width="2" stroke-linecap="round" stroke-linejoin="round"/>
<path d="M35 22.5H24.375C24.0435 22.5 23.7255 22.3683 23.4911 22.1339C23.2567 21.8995 23.125 21.5815 23.125 21.25V11.25C23.125 10.9185 23.2567 10.6005 23.4911 10.3661C23.7255 10.1317 24.0435 10 24.375 10H33.75C34.0815 10 34.3995 10.1317 34.6339 10.3661C34.8683 10.6005 35 10.9185 35 11.25V25C35 26.6576 34.3415 28.2473 33.1694 29.4194C31.9973 30.5915 30.4076 31.25 28.75 31.25" stroke="#F249C8" stroke-width="2" stroke-linecap="round" stroke-linejoin="round"/>
</svg>
