<svg width="81" height="80" viewBox="0 0 81 80" fill="none" xmlns="http://www.w3.org/2000/svg">
<path d="M62.1666 13.6997L45.5333 7.46641C42.7666 6.43307 38.2333 6.43307 35.4666 7.46641L18.8333 13.6997C15 15.1331 11.8666 19.6664 11.8666 23.7331V48.4997C11.8666 52.4331 14.4666 57.5997 17.6333 59.9664L31.9666 70.6664C36.6666 74.1997 44.4 74.1997 49.1 70.6664L63.4333 59.9664C66.6 57.5997 69.2 52.4331 69.2 48.4997V23.7331C69.1333 19.6664 66 15.1331 62.1666 13.6997ZM40.2666 23.4331C44.2 23.4331 47.4 26.6331 47.4 30.5664C47.4 34.4331 44.3666 37.5331 40.5333 37.6664H40.4666H40.4C40.3333 37.6664 40.2666 37.6664 40.2 37.6664C36.2 37.5331 33.2 34.4331 33.2 30.5664C33.1666 26.6331 36.3666 23.4331 40.2666 23.4331ZM47.8 54.5331C45.7666 55.8664 43.1333 56.5664 40.5 56.5664C37.8666 56.5664 35.2 55.8997 33.2 54.5331C31.3 53.2664 30.2666 51.5331 30.2333 49.6331C30.2333 47.7664 31.3 45.9664 33.2 44.6997C37.2333 42.0331 43.8 42.0331 47.8333 44.6997C49.7333 45.9664 50.8 47.6997 50.8 49.5997C50.7666 51.4664 49.7 53.2664 47.8 54.5331Z" fill="#0BE597"/>
</svg>
