<svg width="50" height="50" viewBox="0 0 50 50" fill="none" xmlns="http://www.w3.org/2000/svg">
<g clip-path="url(#clip0_551_11963)">
<path d="M40.7672 -1.97461H11.9279C4.90103 -1.97461 -0.795349 3.72177 -0.795349 10.7486V39.5879C-0.795349 46.6147 4.90103 52.3111 11.9279 52.3111H40.7672C47.794 52.3111 53.4904 46.6147 53.4904 39.5879V10.7486C53.4904 3.72177 47.794 -1.97461 40.7672 -1.97461Z" fill="white"/>
<path d="M40.7672 -1.97461H11.9279C4.90103 -1.97461 -0.795349 3.72177 -0.795349 10.7486V39.5879C-0.795349 46.6147 4.90103 52.3111 11.9279 52.3111H40.7672C47.794 52.3111 53.4904 46.6147 53.4904 39.5879V10.7486C53.4904 3.72177 47.794 -1.97461 40.7672 -1.97461Z" fill="#1D9BF0"/>
<path d="M39.5598 18.4634C39.5804 18.7563 39.5804 19.0492 39.5804 19.3448C39.5804 28.3499 32.6174 38.7354 19.8852 38.7354V38.7299C16.1239 38.7353 12.4405 37.6747 9.27478 35.6748C9.82173 35.7396 10.3713 35.7719 10.9224 35.7732C14.0398 35.7756 17.0675 34.7461 19.5191 32.8503C18.0747 32.8234 16.6749 32.3528 15.5155 31.5042C14.356 30.6557 13.4949 29.4717 13.0524 28.1177C14.0895 28.3146 15.1586 28.2744 16.1774 28.0003C12.9482 27.3579 10.6249 24.5646 10.6249 21.3203V21.234C11.5876 21.7619 12.665 22.0544 13.7664 22.0869C10.725 20.0856 9.78743 16.1019 11.624 12.9872C13.3618 15.0926 15.53 16.8146 17.9878 18.0412C20.4456 19.2679 23.138 19.9717 25.8902 20.1072C25.6158 18.9443 25.6563 17.7308 26.0077 16.5882C26.3591 15.4455 27.0091 14.4137 27.8926 13.596C30.6806 11.0158 35.0653 11.1481 37.6861 13.8914C39.2363 13.5901 40.7228 13.0306 42.0818 12.237C41.565 13.815 40.4837 15.1544 39.0389 16.0061C40.4111 15.8469 41.7511 15.4853 43.0139 14.9334C42.085 16.303 40.9153 17.4983 39.5598 18.4634Z" fill="white"/>
</g>
<defs>
<clipPath id="clip0_551_11963">
<rect width="54.2857" height="54.2857" fill="white" transform="translate(-0.846832 -1.76758)"/>
</clipPath>
</defs>
</svg>
