<svg width="50" height="50" viewBox="0 0 50 50" fill="none" xmlns="http://www.w3.org/2000/svg">
<rect width="50" height="50" rx="25" fill="#F00808"/>
<path d="M21.7262 29.7318L29.2949 25.3568L21.7262 20.9818V29.7318ZM38.5845 18.313C38.7741 18.9984 38.9053 19.9172 38.9928 21.0839C39.0949 22.2505 39.1387 23.2568 39.1387 24.1318L39.2262 25.3568C39.2262 28.5505 38.9928 30.8984 38.5845 32.4005C38.2199 33.713 37.3741 34.5589 36.0616 34.9234C35.3762 35.113 34.122 35.2443 32.197 35.3318C30.3012 35.4339 28.5658 35.4776 26.9616 35.4776L24.6428 35.5651C18.5324 35.5651 14.7262 35.3318 13.2241 34.9234C11.9116 34.5589 11.0658 33.713 10.7012 32.4005C10.5116 31.7151 10.3803 30.7964 10.2928 29.6297C10.1908 28.463 10.147 27.4568 10.147 26.5818L10.0595 25.3568C10.0595 22.163 10.2928 19.8151 10.7012 18.313C11.0658 17.0005 11.9116 16.1547 13.2241 15.7901C13.9095 15.6005 15.1637 15.4693 17.0887 15.3818C18.9845 15.2797 20.7199 15.2359 22.3241 15.2359L24.6428 15.1484C30.7533 15.1484 34.5595 15.3818 36.0616 15.7901C37.3741 16.1547 38.2199 17.0005 38.5845 18.313Z" fill="white"/>
</svg>
