<svg width="24" height="24" viewBox="0 0 24 24" fill="none" xmlns="http://www.w3.org/2000/svg">
<path d="M17 20.75H7C3.56 20.75 1.25 18.44 1.25 15V9C1.25 5.56 3.56 3.25 7 3.25H17C20.44 3.25 22.75 5.56 22.75 9V15C22.75 18.44 20.44 20.75 17 20.75ZM7 4.75C4.42 4.75 2.75 6.42 2.75 9V15C2.75 17.58 4.42 19.25 7 19.25H17C19.58 19.25 21.25 17.58 21.25 15V9C21.25 6.42 19.58 4.75 17 4.75H7Z" fill="white"/>
<path d="M10.59 15.5292C10.3 15.5292 10.02 15.4592 9.77002 15.3192C9.19002 14.9892 8.84998 14.3192 8.84998 13.4892V10.5292C8.84998 9.69924 9.18002 9.02925 9.77002 8.69925C10.35 8.36925 11.1 8.42923 11.81 8.85923L14.28 10.3392C14.96 10.7492 15.35 11.3593 15.35 12.0093C15.35 12.6593 14.96 13.2692 14.28 13.6792L11.81 15.1592C11.4 15.3992 10.98 15.5292 10.59 15.5292ZM10.59 9.96924C10.55 9.96924 10.52 9.97923 10.5 9.98923C10.43 10.0292 10.35 10.2092 10.35 10.5192V13.4793C10.35 13.7793 10.43 13.9593 10.5 14.0093C10.58 14.0493 10.77 14.0292 11.03 13.8692L13.5 12.3893C13.75 12.2393 13.84 12.0892 13.84 11.9992C13.84 11.9092 13.75 11.7692 13.5 11.6092L11.03 10.1292C10.85 10.0192 10.69 9.96924 10.59 9.96924Z" fill="white"/>
</svg>
